<svg width="170" height="110" viewBox="0 0 170 110" fill="none" xmlns="http://www.w3.org/2000/svg">
<g opacity="0.4">
<path d="M49.993 240C116.163 240 170 186.166 170 120C170 53.8336 116.163 0 49.993 0V1.49614C115.338 1.49614 168.49 54.6586 168.49 119.986C168.49 185.327 115.324 238.476 49.993 238.476C30.2482 238.476 10.6992 233.526 -6.52855 224.158L-7.24173 225.472C10.2098 234.994 30.0105 240 49.993 240Z" fill="#006874"/>
<path d="M-54.0724 103.164C-50.143 78.7084 -37.5858 56.2941 -18.694 40.0601C0.3936 23.6443 24.7949 14.6114 49.9933 14.6114C70.3394 14.6114 90.0842 20.4143 107.102 31.4048C126.931 44.213 142.061 63.5091 149.71 85.7417L152.549 84.7629C144.69 61.9011 129.126 42.0596 108.738 28.8878C91.2309 17.5898 70.9267 11.6191 50.0073 11.6191C24.0818 11.6191 -1.00473 20.9177 -20.6377 37.7948C-40.0608 54.4902 -52.9817 77.5478 -57.0229 102.703L-54.0724 103.164Z" fill="#006874"/>
<path d="M49.9929 198.304C93.1742 198.304 128.301 163.179 128.301 120C128.301 102.522 122.666 85.994 112.024 72.207L109.647 74.0388C119.883 87.3084 125.294 103.193 125.294 120C125.294 161.515 91.5101 195.297 49.9929 195.297C42.6236 195.297 35.3381 194.235 28.3603 192.137L27.4934 195.018C34.7648 197.213 42.3439 198.304 49.9929 198.304Z" fill="#006874"/>
<path d="M3.14786 61.0491C16.5861 50.3523 32.793 44.7032 49.9928 44.7032C65.0811 44.7032 79.638 49.1498 92.0973 57.5674L93.7754 55.0784C80.8266 46.3252 65.6824 41.7109 49.9928 41.7109C32.0938 41.7109 15.2437 47.5837 1.27407 58.714L3.14786 61.0491Z" fill="#006874"/>
<path d="M95.8459 165.878C108.096 153.629 114.85 137.339 114.85 120.014C114.85 84.2602 85.7638 55.1621 49.9938 55.1621C14.2378 55.1621 -14.862 84.2602 -14.862 120.014H-13.3657C-13.3657 85.0852 15.0489 56.6722 49.9799 56.6722C84.9108 56.6722 113.325 85.0852 113.325 120.014C113.325 136.933 106.739 152.846 94.7552 164.815L95.8459 165.878Z" fill="#006874"/>
<path d="M49.9933 160.341C72.2412 160.341 90.3359 142.247 90.3359 120C90.3359 97.7538 72.2412 79.6602 49.9933 79.6602V82.6665C70.5771 82.6665 87.3295 99.4178 87.3295 120C87.3295 140.583 70.5771 157.334 49.9933 157.334C29.4095 157.334 12.6572 140.583 12.6572 120H9.65073C9.66471 142.247 27.7595 160.341 49.9933 160.341Z" fill="#006874"/>
<path d="M49.9925 140.052C61.0535 140.052 70.0449 131.061 70.0449 120H68.5487C68.5487 130.222 60.2285 138.542 50.0065 138.542C39.7845 138.542 31.4643 130.222 31.4643 120C31.4643 109.779 39.7845 101.459 50.0065 101.459C55.6838 101.459 60.9696 104.004 64.5214 108.451L65.6961 107.514C61.8646 102.704 56.1453 99.9492 50.0065 99.9492C38.9455 99.9492 29.9541 108.94 29.9541 120C29.9541 131.061 38.9455 140.052 49.9925 140.052Z" fill="#006874"/>
</g>
</svg>
