<svg width="24" height="24" viewBox="0 0 24 24" fill="none" xmlns="http://www.w3.org/2000/svg">
<circle cx="12" cy="12" r="12" fill="url(#paint0_linear_29_36)"/>
<path d="M15.9477 7.19995H8.65076C7.82691 7.19995 7.19922 7.82764 7.19922 8.65149V15.9484C7.19922 16.7723 7.82691 17.4 8.65076 17.4H15.9477C16.7715 17.4 17.3992 16.7723 17.3992 15.9484V8.65149C17.3992 7.82764 16.7715 7.19995 15.9477 7.19995ZM12.2992 15.36C13.9861 15.36 15.3592 14.0261 15.3592 12.4176C15.3592 12.143 15.32 11.8292 15.2415 11.5938H16.1046V15.7523C16.1046 15.9484 15.9477 16.1446 15.7123 16.1446H8.88614C8.68999 16.1446 8.49384 15.9876 8.49384 15.7523V11.5546H9.39614C9.31768 11.8292 9.27845 12.1038 9.27845 12.3784C9.23922 14.0261 10.6123 15.36 12.2992 15.36ZM12.2992 14.183C11.2008 14.183 10.3377 13.32 10.3377 12.2607C10.3377 11.2015 11.2008 10.3384 12.2992 10.3384C13.3977 10.3384 14.2608 11.2015 14.2608 12.2607C14.2608 13.3592 13.3977 14.183 12.2992 14.183ZM16.0654 9.98534C16.0654 10.2207 15.8692 10.4169 15.6338 10.4169H14.5354C14.3 10.4169 14.1038 10.2207 14.1038 9.98534V8.9261C14.1038 8.69072 14.3 8.49457 14.5354 8.49457H15.6338C15.8692 8.49457 16.0654 8.69072 16.0654 8.9261V9.98534Z" fill="white"/>
<defs>
<linearGradient id="paint0_linear_29_36" x1="5.1" y1="21.3" x2="21" y2="4.8" gradientUnits="userSpaceOnUse">
<stop stop-color="#EEA054"/>
<stop offset="0.502762" stop-color="#D64763"/>
<stop offset="1" stop-color="#B62A99"/>
</linearGradient>
</defs>
</svg>
